<?xml version="1.0" encoding="utf-8" ?>
<svg xmlns="http://www.w3.org/2000/svg" xmlns:xlink="http://www.w3.org/1999/xlink" width="1019" height="1019" viewBox="0 0 1019 1019">
	<path fill="#2400EE" transform="matrix(1.59219 0 0 1.59219 0.000976562 0)" d="M364.177 119.909C381.393 112.676 406.352 111.703 424.628 114.384C472.133 121.353 513.578 154.803 532.063 198.97C548.928 239.267 547.166 277.137 530.688 317.283C514.564 356.567 475.777 413.585 432.361 427.162C440.65 434.024 447.504 447.13 448.5 457.831C449.457 468.128 440.202 467.179 432.511 467.311C423.978 467.457 415.095 467.754 406.618 466.84C406.313 487.599 407.01 485.574 414.2 503.921C419.568 517.616 417.159 533.018 410.339 545.67C407.408 551.106 405.688 558.085 399.083 559.763C388.894 556.395 393.298 547.983 397.202 540.925C411.519 515.041 399.73 514.93 394.34 491.453C392.55 483.655 393.063 475.422 393.469 467.498C384.483 467.087 361.17 471.177 361.884 459.996C362.582 449.049 370.679 435.453 378.52 428.015C376.271 425.868 371.804 427.353 371.417 423.261C369.735 405.488 379.756 416.872 384.402 416.026C431.562 429.695 471.555 390.806 495.359 354.086C518.234 318.799 536.794 273.979 527.605 231.281C512.384 160.558 449.568 114.611 377.581 130.275C368.473 126.511 367.628 144.25 352.293 125.502C355.512 122.663 361.577 123.249 364.177 119.909ZM399.57 434.189C387.388 435.339 381.935 441.94 377.425 452.586C389.123 453.724 400.945 452.839 412.68 453.252C419.22 453.092 427.65 453.781 433.833 453.144C427.163 434.96 417.689 432.275 399.57 434.189Z"/>
	<path fill="#2400EE" transform="matrix(1.59219 0 0 1.59219 0.000976562 0)" d="M440.872 172.834C446.3 172.854 450.354 178.877 453.365 182.65C480.112 216.162 481.939 257.885 472.694 298.28C471.268 304.509 470.783 313.767 463.207 315.184C449.666 314.384 457.211 300.351 459.308 292.795C468.33 260.299 465.397 219.511 443.632 192.802C438.726 186.781 428.322 177.428 440.872 172.834Z"/>
	<path fill="#D400F1" transform="matrix(1.59219 0 0 1.59219 0.000976562 0)" d="M200.363 430.377C184.429 424.015 165.506 409.015 153.396 396.789C120.318 363.394 93.0101 302.704 93.358 254.415C93.9105 177.726 153.05 111.987 231.38 112.775C260.41 113.067 296.383 126.629 316.82 147.512C328.197 136.368 349.479 124.706 364.177 119.909C361.577 123.249 355.512 122.663 352.293 125.502C367.628 144.25 368.473 126.511 377.581 130.275C362.939 134.492 349.816 140.107 337.085 148.585C333.971 150.658 329.815 155.298 326.953 156.735C328.102 158.546 329.623 159.979 331.023 161.585C346.867 179.751 356.078 202.948 360.604 226.407C364.23 246.151 363.091 266.482 359.077 286.095C352.682 318.41 343.152 341.651 325.817 369.618C334.721 381.092 343.514 389.356 354.041 398.962C365.339 406.215 370.723 410.76 384.402 416.026C379.756 416.872 369.735 405.488 371.417 423.261C371.804 427.353 376.271 425.868 378.52 428.015C369.545 427.354 351.563 414.658 344.346 408.594C333.818 401.449 325.019 391.062 316.932 381.36C302.797 403.26 279.15 419.094 255.805 429.621C263.192 437.123 270.885 449.164 272.164 459.779C273.295 469.171 261.849 467.388 255.93 467.36C248.574 467.325 241.206 467.149 233.863 467.683C227.129 488.439 232.882 495.042 239.296 512.425C248.384 537.051 227.677 577.364 219.799 555.009C221.662 545.743 228.136 538.203 228.762 528.495C229.493 517.165 219.825 506.979 217.971 495.411C216.505 486.263 218.448 476.481 220.062 467.464C214.12 466.903 192.473 468.546 189.263 466.331C181.044 460.658 196.334 435.703 200.363 430.377ZM334.776 323.096C348.69 287.122 352.382 257.288 345.969 219.83C312.589 109.608 175.226 91.4645 121.525 192.861C93.233 246.28 109.295 309.931 140.5 358.282C209.146 464.648 292.595 421.96 334.776 323.096ZM220.396 435.429C210.545 436.497 204.522 445.077 201.887 453.989C214.651 454.313 227.456 454.093 240.224 454.079C246.034 454.094 251.93 454.303 257.726 453.903C246.92 435.821 241.207 433.278 220.396 435.429Z"/>
	<path fill="#D400F1" transform="matrix(1.59219 0 0 1.59219 0.000976562 0)" d="M199.933 165.052C204.68 164.677 209.807 168.351 208.376 173.663C207.125 178.304 171.894 188.505 162.66 229.792C161.181 236.409 162.594 247.699 156.32 251.396C134.034 255.205 157.774 178.565 199.933 165.052Z"/>
	<path fill="#D400F1" transform="matrix(1.59219 0 0 1.59219 0.000976562 0)" d="M261.905 170.025C273.924 169.342 286.402 190.647 291.552 199.75C312.58 236.918 308.798 279.163 297.77 318.802C296.473 323.466 295.132 327.641 290.649 330.175C275.06 333.542 286.988 307.345 288.35 301.837C297.18 266.124 295.63 223.997 271.809 194.161C266.801 187.889 249.059 175.58 261.905 170.025Z"/>
</svg>
