<?xml version="1.0" encoding="utf-8" ?>
<svg xmlns="http://www.w3.org/2000/svg" xmlns:xlink="http://www.w3.org/1999/xlink" width="1024" height="1024" viewBox="0 0 1024 1024">
	<path fill="#2400EE" transform="scale(1.6 1.6)" d="M303.869 450.902C305.445 453.273 303.276 459.517 303.1 462.457C302.404 474.107 304.91 485.209 310.476 495.444C315.849 505.326 308.874 494.021 316.144 489.354C318.299 487.972 319.734 490.602 320.884 492.065C317.584 485.404 310.889 469.711 314.187 463.65C314.218 465.512 314.105 467.453 314.637 469.25C316.777 499.784 345.972 512.683 344.337 549.74C344.199 552.863 344.391 557.351 341.788 559.554C330.525 569.09 332.256 546.052 332.063 542.602C330.203 509.317 295.057 500.305 303.869 450.902Z"/>
	<defs>
		<linearGradient id="gradient_0" gradientUnits="userSpaceOnUse" x1="533.43585" y1="373.29718" x2="99.285049" y2="322.98035">
			<stop offset="0" stop-color="#0A05FF"/>
			<stop offset="1" stop-color="#FF00FE"/>
		</linearGradient>
	</defs>
	<path fill="url(#gradient_0)" transform="scale(1.6 1.6)" d="M260.717 157.411C294.441 134.735 339.759 129.689 374.638 152.749C377.15 154.41 380.19 156.32 382.082 158.687C384.637 155.956 388.55 153.986 391.844 152.289C431.112 132.063 480.286 136.099 513.016 167.299C566.845 218.612 551.364 310.203 503.463 360C490.291 373.695 474.171 383.796 455.443 387.716C459.784 392.995 483.506 420.882 475.108 427.018C471.531 429.631 450.228 428.459 444.679 428.422C431.06 461.746 433.659 473.073 451.848 501.581C459.8 514.043 469.165 542.221 463.33 556.842C461.104 562.419 453.258 561.942 451.419 556.187C450.003 551.753 452.261 546.248 452.464 541.702C454.148 504.123 404.701 490.016 431.165 428.452C425.747 428.385 409.298 429.256 405.32 428.305C388.655 424.321 417.788 392.137 422.349 387.841C411.21 386.749 388.374 373.482 381.318 364.093L380.925 364.417C366.472 376.463 354.339 387.815 334.221 390.264C338.774 395.123 364.066 419.434 354.794 427.023C351.608 429.631 331.492 428.531 326.571 428.433C319.437 443.513 314.603 451.934 314.637 469.25C314.105 467.453 314.218 465.512 314.187 463.65C310.889 469.711 317.584 485.404 320.884 492.065C319.734 490.602 318.299 487.972 316.144 489.354C308.874 494.021 315.849 505.326 310.476 495.444C304.91 485.209 302.404 474.107 303.1 462.457C303.276 459.517 305.445 453.273 303.869 450.902C304.42 444.051 309.026 434.737 311.677 428.209C301.434 428.478 285.812 432.677 282.738 420.892C285.498 409.896 298.341 399.941 304.605 390.276C290.132 385.245 278.985 377.781 267.461 367.921C254.434 380.871 241.061 391.256 223.283 396.961C228.349 403.058 242.463 419.328 242.55 426.681C242.645 434.812 232.31 433.213 226.865 433.195L211 433.121C201.06 455.862 196.574 472.459 210.056 495.424C220.202 512.706 233.824 533.928 229.71 555.407C228.138 563.62 218.717 563.482 217.591 555.199C216.875 549.936 217.704 544.494 216.873 539.06C212.026 507.358 180.437 492.534 191.282 450.32C192.753 444.594 195.193 439.226 196.977 433.604C188.727 432.97 170.309 436.003 169.219 426.98C168.386 420.085 183.811 403.045 188.419 396.899C150.639 384.193 123.579 342.416 110.72 307.022C108.439 300.742 105.893 293.626 105.039 286.999C94.5922 253.942 102.262 206.242 124.233 179.889C127.961 173.04 136.738 166 142.76 161.376C163.098 145.756 189.736 137.664 215.383 140.49C229.277 142.022 250.133 148.446 260.717 157.411ZM373.624 353.087C374.895 351.273 376.552 349.575 377.968 347.852C412.941 305.336 427.053 239.823 396.394 191.263C394.563 188.363 392.421 185.674 390.506 182.831C332.678 116.328 236.135 156.827 230.459 243.736C229.565 257.415 231.075 271.621 234.532 284.886C251.728 350.864 312.571 416.589 373.624 353.087ZM134.906 186.243C132.961 185.288 129.548 194.836 122.532 186.475C122.177 183.787 124.625 182.252 124.233 179.889C102.262 206.242 94.5922 253.942 105.039 286.999C104.955 286.005 106.823 278.809 104.968 281.534L104.601 281.359C104.369 280.518 104.282 280.094 104.463 279.213L106.444 277.667C114.656 280.568 118.016 305.356 123.709 306.314C149.202 369.597 202.041 420.297 258.958 358.292C255.627 354.885 252.831 350.653 250.047 346.799C212.165 294.362 203.49 216.433 251 166.925C213.847 140.266 163.116 151.636 134.906 186.243ZM439.145 152.326C417.468 153.278 409.981 158.709 392.325 166.918C443.661 214.346 429.616 304.392 389.325 354.189C406.305 371.339 427.365 379.766 451.179 375.958C511.458 361.978 544.499 280.202 531.472 224.38C521.337 180.953 483.576 151.217 439.145 152.326ZM438.833 388.651C432.464 393.166 422.17 408.215 415.593 414.987C422.927 415.452 430.385 415.188 437.736 415.238C445.345 415.197 452.949 415.196 460.557 415.299C456.867 409.622 444.416 390.625 438.833 388.651ZM204.222 399.123C198.011 405.948 191.394 412.989 185.754 420.262C193.133 420.096 200.505 420.029 207.886 420.018C214.043 420.064 220.244 420.193 226.387 419.73C220.923 413.145 215.269 406.405 210.908 399.017L204.222 399.123ZM320.155 392.07C315.778 395.141 304.045 409.874 300.136 414.612C307.223 414.803 314.316 415.067 321.406 415.019C327.888 415.252 334.349 415.191 340.831 415.021C338.128 412.17 321.738 392.164 320.155 392.07Z"/>
	<path fill="#D400F1" transform="scale(1.6 1.6)" d="M199.241 163.251C204.288 162.722 215.028 171.714 196.878 175.459C181.634 178.605 176.045 183.752 163.693 190.608C157.92 193.075 154.518 184.944 158.488 180.374C165.913 171.828 187.747 164.309 199.241 163.251Z"/>
	<path fill="#D400F1" transform="scale(1.6 1.6)" d="M105.039 286.999C94.5922 253.942 102.262 206.242 124.233 179.889C124.625 182.252 122.177 183.787 122.532 186.475C129.548 194.836 132.961 185.288 134.906 186.243C107.463 225.242 108.054 261.744 123.709 306.314C118.016 305.356 114.656 280.568 106.444 277.667L104.463 279.213C104.282 280.094 104.369 280.518 104.601 281.359L104.968 281.534C106.823 278.809 104.955 286.005 105.039 286.999Z"/>
	<path fill="#D400F1" transform="scale(1.6 1.6)" d="M145.323 196.237C149.222 196.317 151.924 198.746 153.742 202.058C152.026 206.454 149.255 210.182 146.854 214.205C134.171 235.458 134.775 265.585 143.105 288.132C145.59 294.86 154.41 304.295 144.069 308.563C134.867 310.253 131.903 293.155 129.931 286.206C123.78 264.538 122.54 242.859 129.858 221.251C132.244 214.208 138.503 199.598 145.323 196.237Z"/>
	<path fill="#D400F1" transform="scale(1.6 1.6)" d="M254.761 278.739C260.787 278.595 265.449 296.635 264.951 298.383C264.421 300.243 261.832 301.692 260.281 302.536C254.331 303.123 244.19 283.215 254.761 278.739Z"/>
	<path fill="#D400F1" transform="scale(1.6 1.6)" d="M315.638 161.072C317.158 160.944 318.699 161.008 320.223 161.021C334.084 169.092 316.917 173.555 310.282 175.302C276.421 184.221 258.845 212.647 256.378 246.87C255.918 253.252 256.456 259.708 256.218 266.106C255.181 267.624 253.919 268.642 252.453 269.701C246.166 272.645 244.45 264.431 243.964 259.925C239.298 216.636 269.652 165.691 315.638 161.072Z"/>
</svg>
