<?xml version="1.0" encoding="utf-8" ?>
<svg xmlns="http://www.w3.org/2000/svg" xmlns:xlink="http://www.w3.org/1999/xlink" width="1024" height="1024" viewBox="0 0 1024 1024">
	<path fill="#8300FE" transform="scale(1.6 1.6)" d="M512.428 200.187C497.027 200.61 466.042 201.984 451.223 200.169C442.678 199.123 446.406 188.466 453.003 187C457.394 186.025 462.549 186.535 467.06 186.537L489.877 186.625C480.035 189.184 454.199 181.263 472.758 199.631C482.056 199.119 491.25 200.256 500.516 200.302C502.436 200.311 511.441 199.739 512.428 200.187Z"/>
	<path fill="#D400F1" transform="scale(1.6 1.6)" d="M132.647 492.217C144.713 491.704 138.396 519.974 140.629 529.529C145.138 548.816 169.767 535.502 177.674 540.884C182.391 544.095 181.198 551.92 175.074 553.065C169.885 553.709 146.506 552.834 142.918 551.404C134.076 547.879 128.096 539.129 127.097 529.813C126.609 525.264 126.316 498.568 127.745 495.479C128.553 493.732 130.958 492.809 132.647 492.217Z"/>
	<path fill="#D400F1" transform="scale(1.6 1.6)" d="M123.462 186.991C129.39 186.426 135.397 186.561 141.348 186.555L141.638 187.008C139.638 188.014 131.599 187.996 129.065 187.92C126.256 188.109 114.09 187.606 113.911 191.852C113.655 197.879 121.13 197.991 122.926 198.915L122.63 199.365L122.155 199.383L121.724 199.763C111.776 202.651 110.017 208.641 109.336 218.06C107.933 237.461 109.587 259.168 109.04 278.982C116.383 279.126 123.714 279.527 131.053 279.691L131.224 280.143C128.238 282.181 117.764 279.833 113.415 284.235L113.154 284.186L113.063 283.584L112.851 283.998C110.923 283.201 111.061 283.399 110.563 284.772C110.351 285.358 104.91 290.964 109.794 289.479L110.973 288.163L111.415 288.156L111.751 288.992L112.433 289.147L111.823 290.158C113.418 291.035 122.075 290.91 125.182 291.755C131.778 291.526 136.189 296.428 139.506 292.689L139.722 292.712C141.353 299.952 139.987 322.35 139.989 331.084L139.996 446.552C140.002 452.509 141.901 471.631 137.533 475.972C134.835 478.652 131.229 477.8 128.865 475.142C125.419 471.269 126.906 449.789 126.898 443.563L126.873 329.104C126.806 317.014 126.3 304.557 127.213 292.512L122.908 292.396C96.1244 293.834 96.2184 294.964 96.277 269.861L96.2687 225.586C96.2174 205.596 100.226 188.91 123.462 186.991Z"/>
	<path fill="#2400EE" transform="scale(1.6 1.6)" d="M489.877 186.625L506.873 186.512C538.038 186.421 544.177 197.307 544.114 226.963L544.104 266.735C544.106 274.027 544.358 281.419 543.986 288.696C539.763 295.004 522.148 292.627 514.071 292.73L514.028 506.166C514.035 524.083 517.974 545.746 495.527 551.905C489.672 553.511 482.633 552.805 476.584 552.801L453.353 552.725C452.408 551.906 417.919 552.672 412.962 552.023C401.135 550.475 405.856 546.667 402.076 542.174C401.048 540.952 403.057 541.05 404.117 540.579C402.177 539.749 399.753 540.414 397.645 539.687L479.771 539.7C505.213 539.715 500.722 531.924 500.694 508.582L500.686 356.464C500.689 335.359 500.371 314.196 500.937 293.101C497.265 292.781 493.531 293.052 489.848 293.074L469.948 293.095C453.968 293.101 437.001 292.48 421.129 293.36C418.612 292.459 414.939 293.14 412.234 292.946C413.523 292.304 426.713 292.697 428.554 292.877C422.848 288.938 419.596 292.863 417.792 281.04L418.095 280.877L418.755 281.269C419.208 280.918 419.597 280.71 420.117 280.484C416.69 280.355 406.922 279.416 404.198 280.548L404.234 280.319L403.886 280.212C407.055 280.154 410.198 280.54 413.309 279.746C440.121 279.194 467.054 279.665 493.879 279.676L513.473 279.697C519.327 279.702 525.091 279.883 530.894 278.948L530.949 232.887C530.959 215.703 535.742 200.963 512.428 200.187C511.441 199.739 502.436 200.311 500.516 200.302C491.25 200.256 482.056 199.119 472.758 199.631C454.199 181.263 480.035 189.184 489.877 186.625Z"/>
	<defs>
		<linearGradient id="gradient_0" gradientUnits="userSpaceOnUse" x1="473.91895" y1="384.42096" x2="94.48333" y2="242.41885">
			<stop offset="0" stop-color="#6C00FF"/>
			<stop offset="1" stop-color="#EB00FC"/>
		</linearGradient>
	</defs>
	<path fill="url(#gradient_0)" transform="scale(1.6 1.6)" d="M319.84 166.792C336.117 142.09 386.771 105.873 415.85 99.945C436.235 95.7894 462.109 107.725 466.267 129.588C471.641 157.844 446.62 180.852 421.801 188.224C428.834 192.21 427.004 199.202 420.812 200.664C417.832 201.368 414.144 200.982 411.077 200.959L342.931 200.31C337.081 200.314 331.175 200.513 325.333 200.309C325.228 202.904 325.119 205.498 324.966 208.091C324.985 215.061 324.739 221.984 325.007 228.955C327.569 245.069 327.147 263.309 326.496 279.703C355.411 279.641 384.402 279.236 413.309 279.746C410.198 280.54 407.055 280.154 403.886 280.212L404.234 280.319L404.198 280.548C406.922 279.416 416.69 280.355 420.117 280.484C419.597 280.71 419.208 280.918 418.755 281.269L418.095 280.877L417.792 281.04C419.596 292.863 422.848 288.938 428.554 292.877C426.713 292.697 413.523 292.304 412.234 292.946C414.939 293.14 418.612 292.459 421.129 293.36C390.208 292.583 356.991 294.745 326.588 292.85C327.212 337.151 326.678 381.53 326.678 425.838L326.673 498.1C326.671 511.879 326.845 525.685 326.571 539.46C350.193 540.51 373.995 539.297 397.645 539.687C399.753 540.414 402.177 539.749 404.117 540.579C403.057 541.05 401.048 540.952 402.076 542.174C405.856 546.667 401.135 550.475 412.962 552.023C417.919 552.672 452.408 551.906 453.353 552.725C437.193 553.04 420.981 552.78 404.814 552.779L238.093 552.773C226.791 552.774 215.367 553.182 204.087 552.866C199.498 552.737 198.407 550.439 197.423 546.2C200.477 534.732 215.51 539.688 226.218 539.688L281.65 539.692C292.14 539.692 302.831 540.142 313.291 539.346C312.666 519.427 313.174 499.38 313.147 479.445L313.153 353.357C313.151 333.321 313.668 313.132 312.859 293.116C308.232 292.699 303.441 293.055 298.788 293.073L185.625 293.031C170.383 293.006 154.926 293.74 139.722 292.712L139.506 292.689C136.189 296.428 131.778 291.526 125.182 291.755C122.075 290.91 113.418 291.035 111.823 290.158L112.433 289.147L111.751 288.992L111.415 288.156L110.973 288.163L109.794 289.479C104.91 290.964 110.351 285.358 110.563 284.772C111.061 283.399 110.923 283.201 112.851 283.998L113.063 283.584L113.154 284.186L113.415 284.235C117.764 279.833 128.238 282.181 131.224 280.143L131.053 279.691C123.714 279.527 116.383 279.126 109.04 278.982C109.587 259.168 107.933 237.461 109.336 218.06C110.017 208.641 111.776 202.651 121.724 199.763L122.155 199.383L122.63 199.365L122.926 198.915C121.13 197.991 113.655 197.879 113.911 191.852C114.09 187.606 126.256 188.109 129.065 187.92C131.599 187.996 139.638 188.014 141.638 187.008L141.348 186.555L178.133 186.572C186.942 186.571 202.622 187.56 210.618 185.073C195.924 176.324 180.313 165.891 175.77 148.253C170.013 125.896 184.935 105.929 206.605 100.431C239.005 92.2098 304.591 142.924 319.84 166.792ZM123.636 199.647L121.724 199.763C111.776 202.651 110.017 208.641 109.336 218.06C107.933 237.461 109.587 259.168 109.04 278.982C116.383 279.126 123.714 279.527 131.053 279.691C151.307 279.227 171.69 279.673 191.956 279.674L312.798 279.681C313.711 268.895 312.983 257.86 313.094 247.044C313.255 231.446 313.986 216.03 313.537 200.395C269.224 199.59 221.777 202.491 178.039 199.939C159.965 201.394 141.726 199.526 123.636 199.647ZM421.181 113.551C392.862 117.002 348.101 153.314 331.009 175.414C330.274 176.363 329.511 177.343 329.2 178.519C332.578 183.234 356.603 181.138 361.953 180.914C386.142 178.822 429.982 175.494 445.418 157.259C463.908 135.417 447.428 110.676 421.181 113.551ZM210.493 113.516C176.494 118.917 183.496 159.822 215.665 171.565C233.802 178.185 269.198 181.025 288.758 181.166C296.215 181.121 303.895 181.466 311.227 179.936C305.838 170.472 297.327 163.163 289.269 156.006C269.523 138.468 238.652 112.169 210.493 113.516Z"/>
	<path fill="#D400F1" transform="scale(1.6 1.6)" d="M324.966 208.091C324.985 215.061 324.739 221.984 325.007 228.955C323.784 229.066 322.557 229.422 321.361 229.698C322.571 224.096 322.556 218.335 323.995 212.739L323.887 214.505C324.443 212.399 324.478 210.216 324.966 208.091Z"/>
	<path fill="#D400F1" transform="scale(1.6 1.6)" d="M123.636 199.647C124.825 198.266 126.035 198.741 127.443 197.907C134.813 201.707 174.794 197.77 178.039 199.939C159.965 201.394 141.726 199.526 123.636 199.647Z"/>
</svg>
