<?xml version="1.0" encoding="utf-8" ?>
<svg xmlns="http://www.w3.org/2000/svg" xmlns:xlink="http://www.w3.org/1999/xlink" width="1116" height="1116" viewBox="0 0 1116 1116">
	<path fill="#D400F1" transform="matrix(1.74375 0 0 1.74375 0 -0.000244141)" d="M159.345 555.584C140.328 556.993 139.846 557.006 140.055 539.848L140.113 498.636C140.097 494.446 139.792 490.073 140.134 485.909C140.471 481.798 145.264 477.219 149.069 480.893C153.481 485.155 150.839 497.824 150.791 503.268C150.669 516.843 150.575 530.503 150.935 544.072C156.397 544.381 161.781 544.543 167.25 544.597L166.68 544.656C137.915 547.508 155.335 534.357 143.876 535.294C142.05 535.443 142.294 537.181 140.826 535.641L140.246 535.932L140.365 535.873C140.464 540.209 139.206 550.606 142.601 553.639C146.283 556.928 158.962 553.665 159.345 555.584Z"/>
	<path fill="#D400F1" transform="matrix(1.74375 0 0 1.74375 0 -0.000244141)" d="M187.469 510.462C194.001 509.997 200.644 510.932 207.194 510.954C214.329 510.978 250.385 509.327 254.704 512.002C259.357 514.885 255.975 520.778 251.574 521.475L212.644 521.483C207.257 521.484 188.072 522.775 183.746 519.746C179.057 516.463 181.722 511.312 187.469 510.462Z"/>
	<defs>
		<linearGradient id="gradient_0" gradientUnits="userSpaceOnUse" x1="424.05328" y1="338.59561" x2="119.37382" y2="310.34216">
			<stop offset="0" stop-color="#3901FF"/>
			<stop offset="1" stop-color="#FF00FD"/>
		</linearGradient>
	</defs>
	<path fill="url(#gradient_0)" transform="matrix(1.74375 0 0 1.74375 0 -0.000244141)" d="M230.905 273.915C205.817 260.519 179.166 236.855 166.627 211.544C143.222 164.294 156.852 94.3026 214.803 81.7286C230.019 78.427 256.267 79.5281 270.788 84.5523C292.549 92.0816 304.485 107.917 314.184 127.837C312.311 127.497 310.616 126.663 308.885 125.901C308.124 126.572 303.409 130.415 302.825 130.301L302.625 130.541C295.243 114.659 286.113 101.813 269.012 95.484C250.992 88.8146 220.04 89.7418 202.569 97.9359C152.399 121.466 160.338 197.588 194.128 233.013C206.85 246.351 241.113 267.743 258.595 273.831C263.147 275.416 267.692 274.888 272.386 275.308C275.46 275.311 278.529 275.356 281.593 275.055C259.542 260.791 237.585 253.511 215.93 234.593C216.571 233.151 198.998 220.38 211.823 220.598C219.808 220.734 223.937 229.959 228.783 230.059L229.059 230.23C235.34 234.167 241.153 238.85 247.501 242.747C268.896 255.878 287.863 264.849 310.429 274.767L310.558 275.229C320.184 278.509 326.558 270.708 326.808 276.149C336.402 291.383 342.085 281.141 349.259 276.662C351.797 275.078 370.538 275.883 375.084 275.368C373.397 276.991 372.418 277.007 373.807 279.784C374.627 281.422 374.499 283.63 375.508 285.054C385.551 288.191 416.591 282.493 427.332 287.194C418.466 287.646 409.569 287.484 400.693 287.485L356.224 287.494L356.238 313.218C356.236 319.212 356.092 325.24 356.562 331.22C378.804 332.218 401.145 331.408 423.409 331.665C419.2 334.634 401.671 329.729 395.585 333.68L395.825 334.437L396.007 334.143L396.217 334.437L395.922 334.293C395.836 344.341 419.334 339.756 422.176 342.442C400.627 342.708 377.831 341.568 356.512 342.476C356.055 348.663 356.232 354.928 356.232 361.129L356.248 522.573C356.25 529.646 356.437 536.769 355.999 543.83C368.712 543.992 393.333 542.271 404.918 544.015C402.753 545.848 376.132 542.534 373.816 546.105C373.724 558.546 396.145 552.822 404.174 555.017C393.771 555.316 383.312 555.102 372.903 555.1L202.21 555.901C188.001 555.9 173.508 556.527 159.345 555.584C158.962 553.665 146.283 556.928 142.601 553.639C139.206 550.606 140.464 540.209 140.365 535.873L140.246 535.932L140.826 535.641C142.294 537.181 142.05 535.443 143.876 535.294C155.335 534.357 137.915 547.508 166.68 544.656L167.25 544.597C190.893 544.99 214.576 544.707 238.222 544.705L262.639 544.72C267.439 544.722 272.364 544.945 277.141 544.464L276.551 400.359C276.552 381.548 275.955 362.022 276.728 343.28C267.689 341.668 254.979 342.508 245.503 342.505L199.524 342.5C191.582 342.506 183.602 342.719 175.667 342.507C167.344 343.226 158.805 342.217 150.405 342.822C150.38 346.868 150.395 350.896 150.553 354.94C174.724 356.584 200.288 354.975 224.688 355.362C235.91 355.54 252.076 355.117 262.341 356.301C266.209 356.747 269.74 366.589 255.687 367.349C242.776 368.048 229.789 366.77 216.891 366.747L179.373 366.736C169.846 366.734 160.363 366.873 150.853 366.178C151.024 372.134 150.82 378.165 150.817 384.126L150.822 443.666C150.828 449.297 151.127 455.097 150.147 460.657C139.156 473.299 140.122 448.37 140.121 444.167L140.132 373.165C140.132 363.051 140.301 352.906 139.982 342.798C117.247 342.15 121.927 341.554 121.887 316.49L122.003 283.261C122.032 281.116 122.499 278.673 124.179 277.177C128.69 273.163 192.546 276.172 203.775 276.284C213.764 275.93 223.854 276.009 233.852 275.93C232.852 275.283 231.879 274.602 230.905 273.915ZM132.494 286.374C132.872 301.509 132.112 316.71 132.824 331.826C143.534 331.29 161.957 330.965 172.136 332.01C183.94 330.978 196.148 331.611 208.001 331.616L276.724 331.834C275.88 317.299 276.207 301.995 277.061 287.489C270.667 286.84 263.789 287.461 257.325 287.467L214.162 287.488C188.056 287.5 158.441 288.385 132.494 286.374ZM292.314 342.94L288.298 343.19C287.763 350.556 287.92 357.947 287.92 365.327L287.938 524.266C287.943 530.817 288.168 537.443 287.537 543.972C293.948 543.91 300.392 543.75 306.797 544.071L311.186 544.099C310.196 477.712 310.276 409.305 311.185 342.913C304.796 342.553 298.701 342.542 292.314 342.94ZM334.344 342.652C330.371 342.539 326.467 342.524 322.498 342.831L322.563 455.518C322.562 485.006 322.906 514.543 322.493 544.025C326.202 543.939 329.885 543.913 333.594 544.033L344.744 544.162C345.292 533.669 344.974 523.049 344.975 512.541L344.975 383.488C344.973 369.913 345.23 356.294 344.863 342.728C341.351 342.566 337.859 342.6 334.344 342.652ZM288.407 287.781C286.946 302.383 288.608 316.799 288.266 331.349C295.775 331.798 303.525 331.93 311.018 331.198C311.161 316.76 310.779 302.269 311.279 287.842C303.755 287.234 295.934 287.202 288.407 287.781ZM335.993 287.671C331.581 287.769 327.1 287.722 322.71 288.161C322.251 302.398 322.284 316.857 322.572 331.098C325.432 331.158 328.296 331.252 331.156 331.242C335.838 331.605 340.278 331.657 344.97 331.217L345.007 287.514C342.002 287.541 338.995 287.544 335.993 287.671Z"/>
	<path fill="#D400F1" transform="matrix(1.74375 0 0 1.74375 0 -0.000244141)" d="M301.928 221.947C310.975 222.208 313.487 232.135 305.592 236.112C298.247 237.15 293.7 224.253 301.928 221.947Z"/>
	<path fill="#D400F1" transform="matrix(1.74375 0 0 1.74375 0 -0.000244141)" d="M215.93 234.593C203.493 225.505 184.696 200.734 185.194 185.684C185.328 181.637 191.774 178.226 194.265 182.058C195.566 184.059 196.066 187.754 196.87 190.083C201.433 203.308 209.848 214.782 220.69 223.598C223.184 225.626 226.766 227.671 228.783 230.059C223.937 229.959 219.808 220.734 211.823 220.598C198.998 220.38 216.571 233.151 215.93 234.593Z"/>
	<path fill="#8600FE" transform="matrix(1.74375 0 0 1.74375 0 -0.000244141)" d="M314.184 127.837C316.727 131.126 319.417 122.268 320.269 120.681C325.591 110.754 334.042 96.3456 344.342 91.1062L344.625 91.5036C342.296 93.3389 328.059 104.117 330.729 107.365C334.033 106.651 340.665 107.729 342.948 105.57C348.518 100.302 353.943 95.2697 361.893 93.7325L362.542 93.9258C341.432 102.825 329.061 118.985 324.001 141.741C322.861 146.866 323.305 157.741 317.72 159.991C310.416 162.935 304.906 136.188 302.625 130.541L302.825 130.301C303.409 130.415 308.124 126.572 308.885 125.901C310.616 126.663 312.311 127.497 314.184 127.837Z"/>
	<path fill="#D400F1" transform="matrix(1.74375 0 0 1.74375 0 -0.000244141)" d="M250.411 123.841C272.399 122.96 274.2 133.789 279.849 150.961C286.625 171.559 296.641 180.924 306.499 197.736C294.72 218.575 267.401 151.449 264.918 143.596C261.414 132.516 254.783 132.206 256.251 139.618C259.888 159.13 267.446 179.034 278.553 195.51C282.686 201.642 297.52 212.275 283.991 217.256C267.251 210.299 249.821 161.21 245.782 145.374C243.962 138.239 240.212 125.839 250.411 123.841Z"/>
	<path fill="#2400EE" transform="matrix(1.74375 0 0 1.74375 0 -0.000244141)" d="M344.342 91.1062C359.232 79.825 387.558 77.0302 405.856 79.6132C485.592 90.8696 495.848 187.33 448.729 238.948C436.979 251.821 412.604 269.661 397.223 276.783C402.904 275.846 408.995 276.171 414.742 276.159L487.851 276.166C495.464 276.154 509.959 272.589 511.253 281.317C511.894 285.642 511.371 340.634 511.174 340.864C509.046 343.341 494.786 342.476 491.018 342.705C491.709 356.399 491.236 370.3 491.236 384.02L491.243 508.15C491.248 519.615 493.951 539.036 485.6 548.18C476.27 558.397 446.126 555.098 432.876 555.102C423.373 555.105 413.649 555.518 404.174 555.017C396.145 552.822 373.724 558.546 373.816 546.105C376.132 542.534 402.753 545.848 404.918 544.015C422.902 542.267 446.736 544.289 465.515 543.844C472.493 543.679 479.513 542.622 479.91 534.519C480.36 525.315 479.871 515.856 479.871 506.62L479.882 380.77C479.882 368.146 480.204 355.423 479.692 342.813C460.637 341.627 441.275 342.742 422.176 342.442C419.334 339.756 395.836 344.341 395.922 334.293L396.217 334.437L396.007 334.143L395.825 334.437L395.585 333.68C401.671 329.729 419.2 334.634 423.409 331.665C401.145 331.408 378.804 332.218 356.562 331.22C356.092 325.24 356.236 319.212 356.238 313.218L356.224 287.494L400.693 287.485C409.569 287.484 418.466 287.646 427.332 287.194C416.591 282.493 385.551 288.191 375.508 285.054C374.499 283.63 374.627 281.422 373.807 279.784C372.418 277.007 373.397 276.991 375.084 275.368C370.538 275.883 351.797 275.078 349.259 276.662C342.085 281.141 336.402 291.383 326.808 276.149C326.558 270.708 320.184 278.509 310.558 275.229L310.429 274.767C330.67 276.576 371.044 253.238 388.321 242.032C412.591 226.29 433.99 211.042 440.262 180.949C448.206 142.835 428.875 109.566 387.248 110.937C380.175 111.169 356.886 117.254 354.298 116.639C348.385 115.234 347.706 109.942 352.983 107.284C383.202 92.0599 430.498 99.9733 446.574 132.338C458.245 155.835 453.514 194.174 437.365 215.444C416.649 242.731 378.637 261.177 347.927 276.137C359.248 273.936 370.842 276.613 381.875 272.469C432.64 248.272 480.169 203.81 463.011 141.68C450.427 96.1127 404.827 81.9473 362.542 93.9258L361.893 93.7325C353.943 95.2697 348.518 100.302 342.948 105.57C340.665 107.729 334.033 106.651 330.729 107.365C328.059 104.117 342.296 93.3389 344.625 91.5036L344.342 91.1062ZM427.332 287.194C418.466 287.646 409.569 287.484 400.693 287.485L356.224 287.494L356.238 313.218C356.236 319.212 356.092 325.24 356.562 331.22C378.804 332.218 401.145 331.408 423.409 331.665C449.191 331.34 474.993 331.708 500.775 331.824C499.393 318.146 500.563 301.4 500.264 287.39C477.689 287.705 449.642 288.768 427.332 287.194Z"/>
	<path fill="#2400EE" transform="matrix(1.74375 0 0 1.74375 0 -0.000244141)" d="M456.634 357.052C459.399 356.898 467.328 356.3 469.525 357.834C471.425 359.161 470.198 365.358 469.064 366.7C467.891 368.088 464.298 368.187 462.578 368.435C459.255 368.456 452.899 369.165 450.023 367.229C447.911 365.807 448.282 359.589 449.84 358C450.904 356.915 455.062 357.117 456.634 357.052Z"/>
	<path fill="#2400EE" transform="matrix(1.74375 0 0 1.74375 0 -0.000244141)" d="M421.024 357.033C425.773 356.934 430.395 356.714 435.102 357.488C435.585 361.023 435.672 364.113 435.231 367.659C431.039 368.719 426.981 368.435 422.709 368.343C418.162 368.103 413.235 368.177 408.808 367.076C408.475 363.777 408.656 360.799 409.167 357.525C413.075 356.995 417.087 357.077 421.024 357.033Z"/>
	<path fill="#2400EE" transform="matrix(1.74375 0 0 1.74375 0 -0.000244141)" d="M370.775 357.042C377.763 356.926 388.075 356.332 394.654 357.993C394.887 362.848 396.405 367.148 390.391 367.793C375.032 367.634 365.501 373.489 366.547 357.22L370.775 357.042Z"/>
	<path fill="#2400EE" transform="matrix(1.74375 0 0 1.74375 0 -0.000244141)" d="M453.479 382.541C462.186 382.748 458.992 405.382 458.981 411.695L458.953 499.142C458.912 506.505 462.163 518.234 453.5 520.331C444.435 520.5 447.705 502.085 447.704 495.16L447.702 459.31C447.702 436.939 447.186 414.247 447.721 391.927C447.846 386.733 448.196 384.427 453.479 382.541Z"/>
</svg>
