<?xml version="1.0" encoding="utf-8" ?>
<svg xmlns="http://www.w3.org/2000/svg" xmlns:xlink="http://www.w3.org/1999/xlink" width="1024" height="1024" viewBox="0 0 1024 1024">
	<path fill="#2400EE" transform="scale(1.6 1.6)" d="M404.242 373.909C412.448 374.121 448.933 372.693 454.565 375.068C456.088 376.798 456.753 378.528 457.471 380.674C454.459 387.789 446.879 386.011 440.391 385.956L407.543 385.951C402.01 385.953 393.286 387.752 388.807 383.507C379.209 374.41 400.205 373.883 404.242 373.909Z"/>
	<path fill="#D400F1" transform="scale(1.6 1.6)" d="M188.507 60.9828C196.601 61.2279 196.089 71.0399 197.349 76.9085C203.393 105.044 229.626 91.4121 233.932 100.541C238.208 109.605 225.586 109.002 220.247 110.003C189.983 115.673 199.848 146.705 190.881 150.276C181.638 148.927 183.191 140.39 181.942 133.412C176.372 102.282 139.554 114.847 144.629 101.97C148.187 92.9423 176.158 102.325 181.6 74.8445C182.689 69.3462 182.429 63.3042 188.507 60.9828ZM189.127 87.7915C185.362 94.7224 180.405 99.611 173.899 104.012C180.542 107.851 184.553 111.997 188.682 118.442C193.286 112.726 198.143 108.044 203.595 103.197C197.724 98.5698 193.227 94.105 189.127 87.7915Z"/>
	<defs>
		<linearGradient id="gradient_0" gradientUnits="userSpaceOnUse" x1="522.76599" y1="328.55295" x2="135.69434" y2="351.98965">
			<stop offset="0" stop-color="#0004FF"/>
			<stop offset="1" stop-color="#FE00FD"/>
		</linearGradient>
	</defs>
	<path fill="url(#gradient_0)" transform="scale(1.6 1.6)" d="M247.055 214.821C185.712 178.873 238.254 114.256 280.08 137.925C290.057 140.464 302.368 153.925 307.262 162.185C314.491 174.387 315.597 187.39 317.622 201.018C327.523 177.422 340.264 148.032 365.552 137.565C419.475 115.244 445.289 186.984 399.561 211.246C396.709 212.759 393.614 213.752 390.759 215.238C404.451 216.489 417.963 216.297 431.7 216.299L499.842 216.271C517.846 216.257 516.774 216.801 516.784 233.09L516.773 273.721C516.802 296.414 517.337 293.368 491.784 293.392L373.776 293.235C371.358 293.22 368.927 292.947 366.515 293.132C366.044 300.983 366.252 308.904 366.254 316.769L366.265 354.404C366.267 361.932 366.915 370.195 365.94 377.646C365.301 382.532 358.917 384.02 355.926 380.101C353.19 376.516 354.314 364.375 354.311 359.986L354.295 310.593C354.296 304.914 354.146 299.184 354.548 293.517C333.598 293.029 312.464 293.125 291.509 293.43C291.913 313.989 291.618 334.605 291.618 355.169L291.617 469.286C291.617 489.59 291.416 509.916 291.666 530.217C309.899 530.461 336.172 531.704 353.898 529.693C354.616 517.578 354.31 505.383 354.311 493.249L354.273 416.209C354.247 412.199 352.793 402.01 356.141 398.983C358.159 397.159 362.582 396.711 364.456 399.007C367.546 402.795 366.268 416.949 366.265 421.669L366.239 530.343L487.183 530.286C486.418 519.123 486.879 507.705 486.88 496.512L486.866 332.31C486.838 327.479 485.96 322.206 487.551 317.537C493.71 311.215 498.146 316.489 498.423 323.843C498.974 338.423 498.46 353.199 498.46 367.803L498.474 526.663C498.48 544.177 498.325 541.976 481.44 541.988L304.82 542.067C302.229 542.081 299.491 542.32 296.915 542.156C290.069 542.544 283.165 542.032 276.31 542.031L185.089 542.041C142.471 542.026 149.955 547.874 149.976 504.685L150.023 293.433C143.973 293.504 137.504 294.118 132.685 289.733C129.856 280.217 131.619 260.218 131.611 249.534C131.606 243.76 129.205 220.131 135.184 217.101C143.344 212.967 242.351 219.492 247.306 215.201L247.055 214.821ZM161.268 292.883C161.927 312.952 161.425 333.185 161.424 353.273L161.419 502.646C161.418 511.947 161.237 521.258 161.906 530.541L261.188 530.307C267.258 530.305 273.367 530.454 279.424 529.998C280.953 525.595 279.694 489.674 279.691 482.141L279.697 307.857C279.707 305.157 280.626 295.058 278.918 293.262C272.482 293.847 265.645 293.411 259.169 293.408L184.326 293.396C176.687 293.397 168.853 293.798 161.268 292.883ZM366.479 227.916C365.706 243.118 365.345 266.09 366.474 281.257C374.095 281.74 381.784 281.538 389.418 281.538L473.004 281.534C483.776 281.532 494.553 281.653 505.32 281.285L505.348 227.855L433.6 228.061C411.25 227.922 388.828 227.379 366.479 227.916ZM143.452 227.496C143.439 244.599 141.804 264.884 142.85 281.267C159.07 281.891 175.398 281.538 191.63 281.539L279.289 281.54C280.2 280.055 279.661 234.682 279.823 228.429C266.483 227.324 252.97 227.817 239.588 227.819L175.167 227.823C164.689 227.822 153.88 228.36 143.452 227.496ZM381.156 145.414C351.14 150.232 332.753 188.334 325.907 214.609C335.708 215.285 345.622 214.922 355.391 213.955C378.941 211.941 413.886 198.256 411.135 169.258C409.713 154.268 396.521 142.862 381.156 145.414ZM267.35 211.054C271.175 211.434 275.395 213.209 279.219 214.021C287.813 215.846 296.277 215.646 304.99 215.217C305.894 183.858 303.08 169.544 279.098 150.449L278.765 150.181C250.876 137.036 223.028 155.804 233.192 183.379C238.985 199.095 252.504 206.208 267.35 211.054ZM291.869 227.929C291.255 243.248 290.48 265.935 291.551 281.265C311.445 282.2 333.891 281.828 353.851 281.403C355.897 273.324 354.122 238.298 354.394 227.99L333.244 227.818C319.833 227.714 305.271 227.55 291.869 227.929Z"/>
	<path fill="#D400F1" transform="scale(1.6 1.6)" d="M196.413 374.197C204.023 373.791 256.985 373.297 260.068 375.202C263.675 377.431 263.528 384.709 254.762 385.871C242.336 386.235 229.826 385.984 217.392 385.941C212.164 385.923 190.952 388.573 189.756 380.777C189 375.849 192.472 374.649 196.413 374.197Z"/>
</svg>
