<?xml version="1.0" encoding="utf-8" ?>
<svg xmlns="http://www.w3.org/2000/svg" xmlns:xlink="http://www.w3.org/1999/xlink" width="1024" height="1024" viewBox="0 0 1024 1024">
	<defs>
		<linearGradient id="gradient_0" gradientUnits="userSpaceOnUse" x1="346.57382" y1="331.11215" x2="87.953644"
			y2="337.14423">
			<stop offset="0" stop-color="#7600FF" />
			<stop offset="1" stop-color="#FF00FB" />
		</linearGradient>
	</defs>
	<path fill="url(#gradient_0)" transform="scale(1.6 1.6)"
		d="M230.64 156.675C245.059 119.992 276.813 89.3617 318.309 89.7205C360.116 89.0662 394.646 117.685 408.568 155.876C456.096 129.552 512.683 148.208 538.34 195.33C576.581 265.564 545.456 406.627 465.244 427.563C471.19 433.98 493.678 462.198 484.308 470.951C479.49 475.452 461.687 472.717 454.721 473.295C455.039 492.975 454.819 512.684 454.82 532.368L454.826 552.255C454.834 558.027 456.608 566.614 447.712 566.045C446.274 565.953 445.12 565.176 444 564.34C441.886 558.253 442.821 541.106 442.826 533.586L442.867 488.064C442.899 482.985 443.276 477.894 443.234 472.82C437.369 472.717 419.183 475.217 415.528 471.331C405.136 460.283 424.299 434.843 433.264 427.765C407.3 421.431 375.191 390.814 367.134 364.935C361.37 374.167 344.973 383.495 334.65 387.179C342.122 395.709 358.524 418.724 358.647 430.038C358.758 440.192 349.08 438.775 342.034 438.758L326.553 438.742C325.952 450.136 326.337 461.681 326.337 473.092L326.313 534.399C326.298 544.01 330.527 562.986 320.827 565.958C311.344 563.013 314.717 548.406 314.73 539.459L314.73 463.765C314.727 455.358 314.512 446.899 314.937 438.503C306.278 438.405 283.199 442.418 281.579 432.12C279.582 419.418 297.459 396.994 304.823 387.177C293.025 382.449 280.598 375.847 272.843 365.446C257.736 397.287 242.072 418.656 207.06 428.084C213.519 434.047 236.462 460.862 227.979 470.163C223.084 475.531 206.12 472.719 197.75 472.927C196.669 494.937 197.403 517.198 197.372 539.243L197.448 554.181C197.494 559.203 198.745 567.206 191.254 567.413C184.807 567.591 185.957 555.396 185.961 551.391L185.958 473.413C179.649 473.229 162.804 474.881 158.163 471.284C146.976 462.613 171.087 435.002 176.58 428.086C162.08 423.738 152.177 419.042 140.915 408.672C74.2241 347.266 54.6236 180.2 159.68 148.026C183.153 140.837 209.285 145.316 230.64 156.675ZM318.309 89.7205C316.044 91.3093 282.979 93.3959 280.351 99.8228C282.112 101.987 294.553 104.433 298.529 104.152C304.13 103.757 319.806 99.0854 324.595 101.805L324.676 102.148C365.224 104.88 391.031 135.845 401.834 172.682C403.729 179.146 405.057 185.911 407.381 192.227C402.85 186.337 396.822 178.474 388.92 177.341C363.564 173.709 368.502 217.252 352.914 214.923C343.222 213.475 340.515 182.963 324.963 177.814C321.672 179.23 318.312 174.998 309.438 180.967C292.689 192.23 320.86 186.354 323.922 190.106L324.046 190.737C308.376 180.858 309.029 221.785 288.925 226.923C261.57 233.913 260.556 189.616 252.191 190.998C247.571 191.761 241.19 199.11 237.251 202.05C247.224 206.405 239.196 220.853 228.731 219.7C228.507 226.72 227.839 234.239 228.646 241.208C251.18 225.741 266.395 245.867 274.358 265.943C276.79 272.073 277.518 277.77 283.722 280.998C297.916 276.562 293.967 250.789 310.636 240.501L310.814 241.032C308.909 242.625 299.795 248.869 305.745 250.31C308.204 250.905 310.585 252.512 312.91 252.884C315.224 251.554 324.143 247.586 324.975 252.66C334.305 263.889 334.513 291.137 352.488 292.83C380.045 295.427 372.119 259.337 389.989 249.816C396.573 246.307 403.109 247.674 407.238 254.111C399.24 297.392 379.714 348.213 340.353 371.158C341 372.459 332.912 375.33 331.599 375.786C330.189 376.276 323.4 377.199 324.392 379.742C325.874 383.543 323.656 388.509 325.473 392.302C328.905 399.465 347.557 420.348 346.767 427.011C340.255 428.59 343.37 428.913 343.628 435.979L343.638 436.346C353.56 439.618 353.09 438.625 357.283 432.789C364.046 423.375 334.187 389.315 334.224 386.626C344.986 382.582 353.464 376.891 362.27 369.738C364.128 368.229 365.045 365.817 366.884 364.412L367.134 364.935C375.191 390.814 407.3 421.431 433.264 427.765C424.299 434.843 405.136 460.283 415.528 471.331C419.183 475.217 437.369 472.717 443.234 472.82C443.276 477.894 442.899 482.985 442.867 488.064L442.826 533.586C442.821 541.106 441.886 558.253 444 564.34C445.12 565.176 446.274 565.953 447.712 566.045C456.608 566.614 454.834 558.027 454.826 552.255L454.82 532.368C454.819 512.684 455.039 492.975 454.721 473.295C461.687 472.717 479.49 475.452 484.308 470.951C493.678 462.198 471.19 433.98 465.244 427.563C545.456 406.627 576.581 265.564 538.34 195.33C512.683 148.208 456.096 129.552 408.568 155.876C394.646 117.685 360.116 89.0662 318.309 89.7205ZM176.462 157.628C113.445 163.169 93.5095 233.471 98.2722 287.379C102.326 333.264 136.87 423.045 195.78 417.103C231.231 413.528 248.421 386.305 264.132 358.187C250.393 342.579 236.459 312.478 229.649 292.746C227.24 284.926 224.717 277.107 222.769 269.156C213.06 283.686 195.103 286.248 185.897 270.427C182.144 263.977 177.061 239.327 167.528 241C154.989 243.202 156.043 276.593 135.15 281.019C111.886 285.948 98.6833 247.129 111.819 244.821C122.985 242.859 116.295 259.805 125.289 267.008C141.213 279.761 143.944 233.616 164.158 229.174C190.169 223.458 188.113 263.858 202.674 269.846C218.88 261.874 215.761 238.1 216.305 223.613C216.885 208.165 220.281 183.48 226.146 168.741C214.637 161.279 189.856 155.813 176.462 157.628ZM231.849 254.013C241.688 291.229 254.17 331.051 282.679 358.513C302.846 377.939 316 382.618 340.353 371.158C379.714 348.213 399.24 297.392 407.238 254.111C403.109 247.674 396.573 246.307 389.989 249.816C372.119 259.337 380.045 295.427 352.488 292.83C334.513 291.137 334.305 263.889 324.975 252.66C306.069 239.553 311.024 286.887 288.605 292.272C261.652 298.745 265.523 256.11 246.568 247.162C241.241 248.141 236.478 251.345 231.849 254.013ZM231.857 185.885C274.278 150.764 269.559 228.231 287.12 214.453C296.647 206.978 302.889 168.993 324.963 177.814C340.515 182.963 343.222 213.475 352.914 214.923C368.502 217.252 363.564 173.709 388.92 177.341C396.822 178.474 402.85 186.337 407.381 192.227C405.057 185.911 403.729 179.146 401.834 172.682C391.031 135.845 365.224 104.88 324.676 102.148C300.879 102.056 282.345 107.38 264.762 124.93C251.612 138.055 237.442 167.103 231.857 185.885ZM320.559 388.68C311.991 393.954 297.323 416.38 294.033 425.917C302.903 426.504 311.73 426.403 320.614 426.382C329.152 426.381 337.732 426.22 346.262 426.553C343.238 418.162 325.134 390.866 320.559 388.68ZM192.98 429.598C187.589 432.591 171.771 453.945 168.448 460.213C176.303 460.724 184.178 460.263 192.027 460.753C199.961 460.34 208.028 461.246 215.887 460.644C213.308 455.407 197.736 430.364 192.98 429.598Z" />
	<path fill="#D400F1" transform="scale(1.6 1.6)"
		d="M162.79 296.667C188.557 293.506 183.352 330.044 199.096 336.007C220.18 329.898 207.224 302.516 218.566 298.912L219.183 299.04C237.575 303.048 220.299 353.995 195.312 346.878C180.894 342.771 177.723 322.91 170.953 311.47C160.245 298.66 153.01 331.133 149.909 336.552C144.729 345.601 134.286 349.069 125.187 343.328C116.049 337.563 110.772 317.815 108.51 307.573C106.666 299.222 113.25 295.104 118.273 298.873C124.832 303.796 120.81 337.094 134.719 333.704C144.5 331.32 142.921 300.928 162.79 296.667Z" />
	<path fill="#2400EE" transform="scale(1.6 1.6)"
		d="M318.309 89.7205C360.116 89.0662 394.646 117.685 408.568 155.876C456.096 129.552 512.683 148.208 538.34 195.33C576.581 265.564 545.456 406.627 465.244 427.563C471.19 433.98 493.678 462.198 484.308 470.951C479.49 475.452 461.687 472.717 454.721 473.295C455.039 492.975 454.819 512.684 454.82 532.368L454.826 552.255C454.834 558.027 456.608 566.614 447.712 566.045C446.274 565.953 445.12 565.176 444 564.34C441.886 558.253 442.821 541.106 442.826 533.586L442.867 488.064C442.899 482.985 443.276 477.894 443.234 472.82C437.369 472.717 419.183 475.217 415.528 471.331C405.136 460.283 424.299 434.843 433.264 427.765C407.3 421.431 375.191 390.814 367.134 364.935L366.884 364.412C365.045 365.817 364.128 368.229 362.27 369.738C353.464 376.891 344.986 382.582 334.224 386.626C334.187 389.315 364.046 423.375 357.283 432.789C353.09 438.625 353.56 439.618 343.638 436.346L343.628 435.979C343.37 428.913 340.255 428.59 346.767 427.011C347.557 420.348 328.905 399.465 325.473 392.302C323.656 388.509 325.874 383.543 324.392 379.742C323.4 377.199 330.189 376.276 331.599 375.786C332.912 375.33 341 372.459 340.353 371.158C379.714 348.213 399.24 297.392 407.238 254.111C403.109 247.674 396.573 246.307 389.989 249.816C372.119 259.337 380.045 295.427 352.488 292.83C334.513 291.137 334.305 263.889 324.975 252.66C324.143 247.586 315.224 251.554 312.91 252.884C310.585 252.512 308.204 250.905 305.745 250.31C299.795 248.869 308.909 242.625 310.814 241.032L310.636 240.501C293.967 250.789 297.916 276.562 283.722 280.998C277.518 277.77 276.79 272.073 274.358 265.943C266.395 245.867 251.18 225.741 228.646 241.208C227.839 234.239 228.507 226.72 228.731 219.7C239.196 220.853 247.224 206.405 237.251 202.05C241.19 199.11 247.571 191.761 252.191 190.998C260.556 189.616 261.57 233.913 288.925 226.923C309.029 221.785 308.376 180.858 324.046 190.737L323.922 190.106C320.86 186.354 292.689 192.23 309.438 180.967C318.312 174.998 321.672 179.23 324.963 177.814C340.515 182.963 343.222 213.475 352.914 214.923C368.502 217.252 363.564 173.709 388.92 177.341C396.822 178.474 402.85 186.337 407.381 192.227C405.057 185.911 403.729 179.146 401.834 172.682C391.031 135.845 365.224 104.88 324.676 102.148L324.595 101.805C319.806 99.0854 304.13 103.757 298.529 104.152C294.553 104.433 282.112 101.987 280.351 99.8228C282.979 93.3959 316.044 91.3093 318.309 89.7205ZM450.531 156.386C435.964 157.112 425.506 161.456 412.869 168.116C420.033 182.206 424.231 213.87 424.249 229.003C424.257 236.192 423.861 244.021 425.187 251.118C426.15 256.277 431.019 272.561 438.768 268.52C452.25 261.489 449.997 230.792 470.718 228.556C496.302 225.794 496.195 264.336 508.525 267.842C518.504 270.679 519.976 251.069 521.814 245.933L522.135 245.657C528.556 240.254 536.016 243.828 534.192 253.673C531.85 266.314 522.013 283.784 506.708 280.736C488.422 277.095 484.582 242.619 473.513 240.548C460.764 238.163 461.704 284.307 433.852 281.223C424.255 280.161 419.619 272.315 416.693 264.031C416.308 272.947 411.768 289.053 408.267 297.271C401.875 316.224 390.064 341.143 375.698 355.75C398.335 402.271 441.543 441.526 490.079 400.488C539.296 358.874 556.87 261.562 528.67 204.674C514.085 175.252 483.956 154.416 450.531 156.386ZM237.251 202.05C247.224 206.405 239.196 220.853 228.731 219.7C228.507 226.72 227.839 234.239 228.646 241.208C251.18 225.741 266.395 245.867 274.358 265.943C276.79 272.073 277.518 277.77 283.722 280.998C297.916 276.562 293.967 250.789 310.636 240.501C336.55 224.518 341.897 272.038 351.78 280.087C360.403 287.111 367.115 261.928 369.105 257.366C377.025 239.216 393.959 228.197 411.148 242.484C411.331 235.367 412.2 228.267 412.447 221.134C394.371 212.78 399.594 195.813 385.636 189.154C371.374 197.395 379.396 229.883 350.649 226.64C334.219 224.787 332.737 201.32 324.046 190.737C308.376 180.858 309.029 221.785 288.925 226.923C261.57 233.913 260.556 189.616 252.191 190.998C247.571 191.761 241.19 199.11 237.251 202.05ZM450.08 429.506C442.128 429.789 445.37 429.635 441.594 435.025C435.766 443.345 429.37 450.973 424.661 460.047C432.615 460.844 440.831 460.632 448.822 460.44C456.882 460.514 464.966 460.838 473.02 460.828C468.244 451.326 456.208 438.187 454.691 429.345L450.08 429.506Z" />
	<path fill="#2400EE" transform="scale(1.6 1.6)"
		d="M473.996 296.073C497.411 295.775 491.038 328.421 504.32 333.653C515.02 330.458 516.249 315.701 517.754 306.317C519.151 297.61 526.835 296.841 531.211 303.574C532.538 318.725 519.242 350.805 499.605 345.53C483.199 341.122 485.756 311.162 474.463 308.523L474.106 308.443C463.194 314.186 462.75 330.356 455.152 339.408C448.981 346.76 437.595 348.356 430.237 341.684C425.047 336.978 410.655 307.857 417.535 300.658C420.037 298.04 425.054 298.786 427.049 301.683C430.953 307.351 428.214 323.512 437.557 331.917C450.563 343.616 449.916 298.109 473.996 296.073Z" />
</svg>
